<svg xmlns="http://www.w3.org/2000/svg" width="505" height="216" viewBox="0 0 505 216">
  <g fill="none" fill-rule="evenodd">
    <text fill="#8EC640" font-family="BentonSans-Medium, BentonSans" font-size="12" font-weight="400">
      <tspan x="464" y="29">50%</tspan>
    </text>
    <text fill="#B8B8B9" font-family="BentonSans-Medium, BentonSans" font-size="12" font-weight="400">
      <tspan x="185" y="31">25%</tspan>
    </text>
    <path stroke="#E7E7E7" d="M0.291599991,163.882565 L503.593185,163.882565 M51.0743217,0.252979244 L51.0743217,214.665286 M152.637432,0.252979244 L152.637432,214.665286 M178.027627,0.252979244 L178.027627,214.665286 M452.812796,51.0357009 L0.291599991,51.0357009 L452.809998,51.0357009 L452.811863,214.664353 L452.809998,51.0357009 Z"/>
    <polyline stroke="#8EC640" stroke-width="1.411" points="452.812 1.783 452.812 51.035 502.062 51.035"/>
    <polygon fill="#8EC640" points="452.81 .253 447.043 6.458 448.077 7.419 452.81 2.324 457.545 7.419 458.579 6.458"/>
    <polygon fill="#8EC640" points="496.427 46.299 501.52 51.035 496.427 55.771 497.388 56.804 503.594 51.035 497.388 45.266"/>
    <g fill="#430098" transform="translate(51 51)">
      <path d="M95.9939227,102.726254 C95.9939227,105.215351 93.9690523,107.240222 91.4799548,107.240222 L10.2285332,107.240222 C7.73943569,107.240222 5.71456535,105.215351 5.71456535,102.726254 L5.71456535,10.1910789 C5.71456535,7.70198134 7.73943569,5.677111 10.2285332,5.677111 L91.4799548,5.677111 C93.9690523,5.677111 95.9939227,7.70198134 95.9939227,10.1910789 L95.9939227,102.726254 Z M91.4799548,0.0340679706 L10.2285332,0.0340679706 C4.62048218,0.0340679706 0.0738551179,4.58069504 0.0738551179,10.1910789 L0.0738551179,102.726254 C0.0738551179,108.334305 4.62048218,112.883265 10.2285332,112.883265 L91.4799548,112.883265 C97.0880058,112.883265 101.636966,108.334305 101.636966,102.726254 L101.636966,10.1910789 C101.636966,4.58069504 97.0880058,0.0340679706 91.4799548,0.0340679706 L91.4799548,0.0340679706 Z"/>
      <polygon points="25.464 95.955 38.159 84.672 25.464 73.385"/>
      <path d="M71.3324949 50.2170268C69.058015 47.9168861 64.8823031 45.1735133 57.9072313 45.1735133 50.2579803 45.1735133 42.3824478 47.1633917 36.7487359 48.9969724L36.7487359 16.9629638 25.4649827 16.9629638 25.4649827 65.8981079 33.43616 62.2869336C33.5621312 62.2286136 46.4345213 56.4595994 57.9072313 56.4595994 63.6365879 56.4595994 64.9056311 59.6228761 64.9616183 62.2566072L64.9616183 95.956235 76.2453716 95.956235 76.2453716 62.1003096C76.25237 61.3794745 76.1847188 55.1252378 71.3324949 50.2170268M56.4970538 35.2997044L67.780807 35.2997044C72.8849733 29.5166933 75.4837124 23.3720983 76.246538 16.9615641L64.9604519 16.9615641C63.7170695 23.3581015 60.9317064 29.4817013 56.4970538 35.2997044"/>
    </g>
    <polygon fill="#430098" points="178.027 87.777 189.276 87.777 189.276 103.243 203.114 103.243 203.114 87.777 214.365 87.777 214.365 129.401 203.114 129.401 203.114 112.581 189.276 112.581 189.276 129.401 178.027 129.401"/>
    <polygon fill="#430098" points="228.854 87.777 258.553 87.777 258.553 97.115 240.102 97.115 240.102 103.864 253.266 103.864 253.266 112.64 240.102 112.64 240.102 120.343 259.511 120.343 259.511 129.401 228.854 129.401"/>
    <path fill="#430098" d="M287.72661 106.393976C292.338556 106.393976 294.363426 105.099272 294.363426 101.614069 294.363426 98.1265334 292.338556 96.8878167 287.72661 96.8878167L282.890716 96.8878167 282.890716 106.393976 287.72661 106.393976zM271.865904 87.7759002L288.120853 87.7759002C298.80741 87.7759002 305.334584 91.321756 305.334584 101.331801 305.334584 107.856642 302.574882 111.626447 297.120796 113.481023L305.950443 129.400049 294.027503 129.400049 285.984009 114.946021 282.890716 114.946021 282.890716 129.400049 271.865904 129.400049 271.865904 87.7759002zM346.710757 108.586808C346.710757 100.937557 343.393515 96.2696247 337.542853 96.2696247 331.636204 96.2696247 328.318962 100.937557 328.318962 108.586808 328.318962 116.240725 331.636204 121.188594 337.542853 121.188594 343.393515 121.188594 346.710757 116.240725 346.710757 108.586808M317.070201 108.586808C317.070201 93.3466264 327.474488 86.9874138 337.542853 86.9874138 347.55523 86.9874138 357.961851 93.3466264 357.961851 108.586808 357.961851 123.831656 347.55523 130.186203 337.542853 130.186203 327.474488 130.186203 317.070201 123.831656 317.070201 108.586808"/>
    <polygon fill="#430098" points="370.485 87.777 381.734 87.777 381.734 102.851 393.209 87.777 406.259 87.777 392.252 104.202 407.495 129.401 394.783 129.401 384.941 112.749 381.734 116.463 381.734 129.401 370.485 129.401"/>
    <path fill="#430098" d="M417.881217,112.694636 L417.881217,87.7779997 L429.129978,87.7779997 L429.129978,112.638649 C429.129978,118.375004 430.986887,120.962079 435.489191,120.962079 C439.986829,120.962079 441.78775,118.375004 441.78775,112.638649 L441.78775,87.7779997 L452.812563,87.7779997 L452.812563,112.694636 C452.812563,123.721781 447.524105,130.018008 435.374883,130.018008 C423.225661,130.018008 417.881217,123.721781 417.881217,112.694636"/>
    <g transform="translate(153 22)">
      <path stroke="#B8B8B9" stroke-width="1.411" d="M0,5 L23.9811833,5"/>
      <polygon fill="#B8B8B9" points="0 9.168 1.409 9.168 1.409 0 0 0"/>
      <polygon fill="#B8B8B9" points="23.3 9.168 24.711 9.168 24.711 0 23.3 0"/>
    </g>
  </g>
</svg>
